<svg xmlns="http://www.w3.org/2000/svg" viewBox="0 0 900 460" role="img" aria-labelledby="title desc">
  <title id="title">Tangente à une courbe</title>
  <desc id="desc">Une courbe bleue avec une tangente rouge au point A.</desc>
  <rect width="900" height="460" fill="#fffdf8"/>
  <g stroke="#121212" stroke-width="3">
    <path d="M80 380H820" fill="none"/>
    <path d="M120 410V60" fill="none"/>
  </g>
  <g stroke="#d7d0c6" stroke-width="1">
    <path d="M120 320H820"/>
    <path d="M120 260H820"/>
    <path d="M120 200H820"/>
    <path d="M120 140H820"/>
    <path d="M220 60V380"/>
    <path d="M340 60V380"/>
    <path d="M460 60V380"/>
    <path d="M580 60V380"/>
    <path d="M700 60V380"/>
  </g>
  <path d="M130 342 C230 335, 302 274, 380 215 C455 158, 560 128, 760 82" fill="none" stroke="#3f7f8f" stroke-width="8" stroke-linecap="round"/>
  <path d="M230 310 L710 96" fill="none" stroke="#d96c5f" stroke-width="6" stroke-linecap="round"/>
  <circle cx="430" cy="180" r="12" fill="#f4d35e" stroke="#121212" stroke-width="4"/>
  <text x="448" y="174" font-family="Plus Jakarta Sans, Arial, sans-serif" font-size="30" font-weight="800" fill="#121212">A</text>
  <text x="600" y="144" font-family="Plus Jakarta Sans, Arial, sans-serif" font-size="24" font-weight="800" fill="#d96c5f">Tangente</text>
  <text x="190" y="352" font-family="Plus Jakarta Sans, Arial, sans-serif" font-size="24" font-weight="800" fill="#3f7f8f">Courbe de f</text>
</svg>
